<?xml version="1.0" standalone="no"?>
<!DOCTYPE svg PUBLIC "-//W3C//DTD SVG 20010904//EN"
 "http://www.w3.org/TR/2001/REC-SVG-20010904/DTD/svg10.dtd">
<svg version="1.0" xmlns="http://www.w3.org/2000/svg"
 width="400.000000pt" height="400.000000pt" viewBox="0 0 400.000000 400.000000"
 preserveAspectRatio="xMidYMid meet">

<g transform="translate(0.000000,400.000000) scale(0.100000,-0.100000)"
fill="#000000" stroke="none">
<path d="M0 2000 l0 -2000 2000 0 2000 0 0 2000 0 2000 -2000 0 -2000 0 0
-2000z m2761 928 c69 -31 116 -78 148 -148 34 -74 35 -197 3 -285 -83 -226
-374 -438 -670 -488 l-76 -13 -67 -239 -68 -240 32 -34 c117 -124 321 -184
428 -128 72 38 101 98 124 260 l6 37 131 0 131 0 -6 -102 c-6 -111 -20 -165
-62 -248 -76 -150 -237 -239 -432 -240 -137 0 -232 33 -396 139 -52 34 -97 61
-101 61 -3 0 -31 -20 -62 -45 -108 -89 -249 -143 -389 -152 -198 -12 -346 60
-415 201 -81 164 -25 355 133 457 90 58 151 74 287 74 126 0 176 -12 285 -69
33 -17 64 -31 69 -31 5 0 28 67 51 148 38 131 41 149 26 154 -253 88 -384 221
-413 421 -13 88 2 200 42 305 l21 57 144 0 144 0 -29 -63 c-56 -124 -59 -230
-10 -326 32 -63 115 -121 172 -121 20 0 26 11 46 73 98 310 303 547 518 602
84 21 187 14 255 -17z"/>
<path d="M2512 2669 c-66 -33 -154 -137 -206 -242 -25 -51 -49 -107 -52 -126
l-7 -34 34 6 c108 21 299 157 356 254 30 52 35 115 12 139 -27 26 -88 28 -137
3z"/>
<path d="M1334 1536 c-62 -28 -91 -96 -63 -148 26 -48 144 -71 248 -47 55 12
145 56 168 82 17 18 17 20 -12 44 -69 56 -125 76 -220 80 -62 2 -100 -1 -121
-11z"/>
</g>
</svg>
