<svg width="19" height="6" viewBox="0 0 19 6" fill="none" xmlns="http://www.w3.org/2000/svg">
<g filter="url(#filter0_i_1_23)">
<path d="M2.03066 4.54036C2.32975 4.54036 2.54299 4.48774 2.67038 4.3825C2.80331 4.27173 2.86977 4.14157 2.86977 3.99202C2.86977 3.85356 2.81716 3.74278 2.71192 3.6597C2.61222 3.57108 2.46268 3.49631 2.26329 3.43538L1.82296 3.29415C1.52387 3.19445 1.25801 3.08368 1.02538 2.96182C0.798295 2.83997 0.621056 2.68212 0.493666 2.48826C0.371814 2.29441 0.310888 2.04794 0.310888 1.74885C0.310888 1.28913 0.485358 0.923577 0.834297 0.652179C1.18324 0.380783 1.66787 0.245084 2.28821 0.245084C2.60392 0.245084 2.88362 0.275547 3.12732 0.336473C3.37657 0.397399 3.57042 0.488787 3.70889 0.610639C3.8529 0.726952 3.9249 0.870959 3.9249 1.04266C3.9249 1.17005 3.89444 1.28082 3.83351 1.37498C3.77812 1.4636 3.70612 1.54114 3.6175 1.60761C3.49011 1.51899 3.32118 1.44422 3.11071 1.38329C2.90024 1.31683 2.66761 1.28359 2.41283 1.28359C2.14697 1.28359 1.94758 1.3279 1.81465 1.41652C1.68172 1.4996 1.61526 1.61038 1.61526 1.74885C1.61526 1.85962 1.65957 1.95101 1.74818 2.02301C1.8368 2.08948 1.96973 2.1504 2.14697 2.20579L2.60392 2.34703C3.10794 2.50211 3.49565 2.70981 3.76705 2.97013C4.03844 3.22491 4.17414 3.56831 4.17414 4.00033C4.17414 4.46558 3.99413 4.84499 3.63412 5.13854C3.2741 5.42655 2.75346 5.57056 2.0722 5.57056C1.73434 5.57056 1.43248 5.53456 1.16662 5.46255C0.900761 5.39055 0.687521 5.28531 0.526898 5.14685C0.371814 5.00838 0.294272 4.84776 0.294272 4.66498C0.294272 4.52097 0.335813 4.39912 0.418893 4.29942C0.507513 4.19419 0.60444 4.11665 0.709676 4.0668C0.859221 4.18865 1.04477 4.29942 1.26632 4.39912C1.4934 4.49328 1.74818 4.54036 2.03066 4.54036ZM7.10566 1.44145H7.05581C7.00042 1.61869 6.93396 1.81531 6.85642 2.03132C6.78441 2.24733 6.70964 2.47442 6.6321 2.71258C6.55456 2.94521 6.47978 3.17783 6.40778 3.41046L6.25823 4.15819C6.225 4.26342 6.19177 4.3742 6.15854 4.49051C6.13084 4.60682 6.10038 4.72037 6.06715 4.83114C6.03392 4.94191 6.00345 5.04715 5.97576 5.14685C5.94807 5.24654 5.92037 5.3407 5.89268 5.42932C5.83175 5.44594 5.76252 5.46255 5.68498 5.47917C5.60744 5.50132 5.51605 5.5124 5.41081 5.5124C5.17819 5.5124 5.00095 5.47086 4.87909 5.38778C4.75724 5.3047 4.69632 5.18285 4.69632 5.02223C4.69632 4.95576 4.70463 4.88653 4.72124 4.81452C4.7434 4.74252 4.76832 4.65944 4.79601 4.56528C4.84586 4.3825 4.9151 4.15265 5.00372 3.87571C5.09787 3.59878 5.19757 3.29969 5.30281 2.97844C5.41358 2.65166 5.52436 2.33041 5.63513 2.0147C5.75144 1.699 5.85668 1.40821 5.95084 1.14236C6.05053 0.876498 6.13084 0.668796 6.19177 0.519251C6.26931 0.469402 6.39116 0.425092 6.55733 0.386321C6.72903 0.342012 6.89796 0.319857 7.06412 0.319857C7.30228 0.319857 7.51552 0.355858 7.70384 0.427861C7.89216 0.494326 8.01124 0.602331 8.06109 0.751877C8.16632 1.04543 8.27987 1.38606 8.40172 1.77377C8.52911 2.15594 8.6565 2.5575 8.78389 2.97844C8.91128 3.39938 9.03313 3.80925 9.14944 4.20803C9.2713 4.60128 9.37653 4.95576 9.46515 5.27147C9.40422 5.33793 9.31561 5.39332 9.19929 5.43763C9.08298 5.48748 8.94451 5.5124 8.78389 5.5124C8.5568 5.5124 8.39618 5.47086 8.30202 5.38778C8.20786 5.3047 8.13586 5.18008 8.08601 5.01392L7.82015 4.08341L7.67892 3.37723C7.61245 3.12799 7.54322 2.88705 7.47121 2.65443C7.39921 2.4218 7.33275 2.20302 7.27182 1.99809C7.21089 1.78762 7.15551 1.60207 7.10566 1.44145ZM5.70159 4.30773L6.19177 3.32738H8.13586L8.30202 4.30773H5.70159ZM11.0107 1.40821L11.0024 0.39463H13.5696C13.6028 0.444478 13.6333 0.513712 13.661 0.602331C13.6887 0.690951 13.7025 0.785109 13.7025 0.884805C13.7025 1.06204 13.661 1.19497 13.5779 1.28359C13.5004 1.36667 13.3924 1.40821 13.2539 1.40821H11.0107ZM12.1821 0.39463L12.1905 1.40821H9.62326C9.58449 1.35837 9.55126 1.28913 9.52357 1.20051C9.50141 1.11189 9.49033 1.01773 9.49033 0.918038C9.49033 0.73526 9.52911 0.602331 9.60665 0.519251C9.68973 0.43617 9.79773 0.39463 9.93066 0.39463H12.1821ZM10.9442 1.1839H12.2154V5.42101C12.16 5.43763 12.0769 5.45148 11.9661 5.46255C11.8554 5.47917 11.7418 5.48748 11.6255 5.48748C11.3763 5.48748 11.199 5.44317 11.0938 5.35455C10.9941 5.26593 10.9442 5.11085 10.9442 4.8893V1.1839ZM15.9045 4.54036C16.2036 4.54036 16.4168 4.48774 16.5442 4.3825C16.6771 4.27173 16.7436 4.14157 16.7436 3.99202C16.7436 3.85356 16.691 3.74278 16.5858 3.6597C16.4861 3.57108 16.3365 3.49631 16.1371 3.43538L15.6968 3.29415C15.3977 3.19445 15.1318 3.08368 14.8992 2.96182C14.6721 2.83997 14.4949 2.68212 14.3675 2.48826C14.2456 2.29441 14.1847 2.04794 14.1847 1.74885C14.1847 1.28913 14.3592 0.923577 14.7081 0.652179C15.0571 0.380783 15.5417 0.245084 16.162 0.245084C16.4777 0.245084 16.7575 0.275547 17.0012 0.336473C17.2504 0.397399 17.4443 0.488787 17.5827 0.610639C17.7267 0.726952 17.7987 0.870959 17.7987 1.04266C17.7987 1.17005 17.7683 1.28082 17.7073 1.37498C17.652 1.4636 17.58 1.54114 17.4913 1.60761C17.3639 1.51899 17.195 1.44422 16.9845 1.38329C16.7741 1.31683 16.5414 1.28359 16.2867 1.28359C16.0208 1.28359 15.8214 1.3279 15.6885 1.41652C15.5556 1.4996 15.4891 1.61038 15.4891 1.74885C15.4891 1.85962 15.5334 1.95101 15.622 2.02301C15.7106 2.08948 15.8436 2.1504 16.0208 2.20579L16.4777 2.34703C16.9818 2.50211 17.3695 2.70981 17.6409 2.97013C17.9123 3.22491 18.048 3.56831 18.048 4.00033C18.048 4.46558 17.868 4.84499 17.5079 5.13854C17.1479 5.42655 16.6273 5.57056 15.946 5.57056C15.6082 5.57056 15.3063 5.53456 15.0405 5.46255C14.7746 5.39055 14.5614 5.28531 14.4007 5.14685C14.2456 5.00838 14.1681 4.84776 14.1681 4.66498C14.1681 4.52097 14.2096 4.39912 14.2927 4.29942C14.3813 4.19419 14.4783 4.11665 14.5835 4.0668C14.7331 4.18865 14.9186 4.29942 15.1401 4.39912C15.3672 4.49328 15.622 4.54036 15.9045 4.54036Z" fill="#FCCB21"/>
</g>
<defs>
<filter id="filter0_i_1_23" x="-0.486797" y="-2.09812" width="18.5348" height="7.66868" filterUnits="userSpaceOnUse" color-interpolation-filters="sRGB">
<feFlood flood-opacity="0" result="BackgroundImageFix"/>
<feBlend mode="normal" in="SourceGraphic" in2="BackgroundImageFix" result="shape"/>
<feColorMatrix in="SourceAlpha" type="matrix" values="0 0 0 0 0 0 0 0 0 0 0 0 0 0 0 0 0 0 127 0" result="hardAlpha"/>
<feOffset dx="-0.781069" dy="-3.90535"/>
<feGaussianBlur stdDeviation="1.1716"/>
<feComposite in2="hardAlpha" operator="arithmetic" k2="-1" k3="1"/>
<feColorMatrix type="matrix" values="0 0 0 0 0 0 0 0 0 0 0 0 0 0 0 0 0 0 0.25 0"/>
<feBlend mode="normal" in2="shape" result="effect1_innerShadow_1_23"/>
</filter>
</defs>
</svg>
