<?xml version="1.0" standalone="no"?>
<!DOCTYPE svg PUBLIC "-//W3C//DTD SVG 20010904//EN"
 "http://www.w3.org/TR/2001/REC-SVG-20010904/DTD/svg10.dtd">
<svg version="1.0" xmlns="http://www.w3.org/2000/svg"
 width="512.000000pt" height="512.000000pt" viewBox="0 0 512.000000 512.000000"
 preserveAspectRatio="xMidYMid meet">

<g transform="translate(0.000000,512.000000) scale(0.100000,-0.100000)"
fill="#000000" stroke="none">
<path d="M0 2560 l0 -2560 2560 0 2560 0 0 2560 0 2560 -2560 0 -2560 0 0
-2560z m2822 272 l1008 -1007 0 -249 c0 -218 -2 -252 -17 -268 -15 -16 -36
-18 -252 -18 l-235 0 -376 375 c-207 206 -382 375 -390 375 -8 0 -106 -91
-217 -203 l-203 -203 0 -156 c0 -129 -3 -159 -16 -172 -13 -14 -65 -16 -418
-16 -299 0 -405 3 -414 12 -9 9 -12 82 -12 268 l0 255 370 370 c204 203 370
377 370 385 0 8 -166 181 -370 385 l-370 371 0 240 c0 173 3 243 12 252 9 9
82 12 267 12 l256 0 1007 -1008z m1008 972 c14 -37 13 -460 -2 -487 -6 -12
-131 -143 -278 -290 -223 -225 -270 -268 -291 -265 l-24 3 -5 223 c-4 183 -8
224 -20 232 -8 5 -110 10 -227 10 -206 0 -213 1 -224 21 -10 20 11 44 267 300
l279 279 258 0 257 0 10 -26z"/>
</g>
</svg>
