<svg width="41" height="27" viewBox="0 0 41 27" fill="none" xmlns="http://www.w3.org/2000/svg">
<g filter="url(#filter0_i_2648_15773)">
<path d="M5.26437 16.1289C4.24731 16.1289 3.36585 15.9368 2.62 15.5526C1.87415 15.1608 1.29405 14.6372 0.879687 13.9818C0.47286 13.3263 0.269447 12.6068 0.269447 11.8233V4.95247C0.269447 4.16142 0.47286 3.44194 0.879687 2.79403C1.29405 2.13859 1.87415 1.61876 2.62 1.23453C3.36585 0.842771 4.24731 0.646891 5.26437 0.646891H8.745C9.76207 0.646891 10.6435 0.842771 11.3894 1.23453C12.1428 1.61876 12.7229 2.13859 13.1297 2.79403C13.5365 3.44194 13.7399 4.16142 13.7399 4.95247V11.8233C13.7399 12.6068 13.5365 13.3263 13.1297 13.9818C12.7229 14.6372 12.1428 15.1608 11.3894 15.5526C10.6435 15.9368 9.76207 16.1289 8.745 16.1289H5.26437ZM3.20764 11.0097H4.41682V2.96354L4.97055 2.86184H6.25884L6.74477 2.96354V7.75506H7.95395V2.96354L8.43988 2.86184H9.73947L10.2932 2.96354V11.0097H11.4911V2.54542L10.7791 1.82217L9.82987 1.66396H8.34948L7.73924 1.84477L7.35501 2.62452L6.98209 1.84477L6.36055 1.66396H4.88015L3.93089 1.82217L3.20764 2.54542V11.0097ZM18.6445 16.1289C17.6274 16.1289 16.7459 15.9368 16.0001 15.5526C15.2542 15.1608 14.6741 14.6372 14.2598 13.9818C13.8529 13.3263 13.6495 12.6068 13.6495 11.8233V4.95247C13.6495 4.16142 13.8529 3.44194 14.2598 2.79403C14.6741 2.13859 15.2542 1.61876 16.0001 1.23453C16.7459 0.842771 17.6274 0.646891 18.6445 0.646891H22.1251C23.1421 0.646891 24.0236 0.842771 24.7695 1.23453C25.5228 1.61876 26.1029 2.13859 26.5098 2.79403C26.9166 3.44194 27.12 4.16142 27.12 4.95247V11.8233C27.12 12.6068 26.9166 13.3263 26.5098 13.9818C26.1029 14.6372 25.5228 15.1608 24.7695 15.5526C24.0236 15.9368 23.1421 16.1289 22.1251 16.1289H18.6445ZM17.0284 11.0097H18.3732L18.6671 7.56294H22.837L23.1647 11.0097H24.453L23.5603 2.59062L22.8596 1.88997L21.3566 1.66396H20.1474L18.6445 1.88997L17.9551 2.59062L17.0284 11.0097ZM18.7688 6.47807L19.1078 3.03135L20.204 2.86184H21.3114L22.3737 3.03135L22.7466 6.47807H18.7688ZM32.0245 16.1289C31.0075 16.1289 30.126 15.9368 29.3802 15.5526C28.6343 15.1608 28.0542 14.6372 27.6398 13.9818C27.233 13.3263 27.0296 12.6068 27.0296 11.8233V4.95247C27.0296 4.16142 27.233 3.44194 27.6398 2.79403C28.0542 2.13859 28.6343 1.61876 29.3802 1.23453C30.126 0.842771 31.0075 0.646891 32.0245 0.646891H35.5052C36.5222 0.646891 37.4037 0.842771 38.1495 1.23453C38.9029 1.61876 39.483 2.13859 39.8898 2.79403C40.2967 3.44194 40.5001 4.16142 40.5001 4.95247V11.8233C40.5001 12.6068 40.2967 13.3263 39.8898 13.9818C39.483 14.6372 38.9029 15.1608 38.1495 15.5526C37.4037 15.9368 36.5222 16.1289 35.5052 16.1289H32.0245ZM32.6574 11.0097H35.5956L36.7482 10.8741L37.4715 10.1621L37.6297 9.19025V7.47254L37.4715 6.50068L36.7482 5.78873L35.573 5.66442H33.0416L32.3523 5.52881L32.194 4.86207V3.67549L32.3523 3.00875L33.0981 2.86184H35.9685L37.0308 3.07655L37.302 1.84477L35.9911 1.66396H33.019L31.8889 1.82217L31.1544 2.54542L31.0075 3.49468V5.04288L31.1544 5.99214L31.8889 6.70409L33.019 6.851H35.573L36.2623 6.96401L36.4205 7.58555V9.06594L36.2623 9.69878L35.5278 9.81179H32.7252L31.6177 9.63098L31.3352 10.8515L32.6574 11.0097ZM13.2819 25.2399C13.581 25.2399 13.7942 25.1873 13.9216 25.0821C14.0546 24.9713 14.121 24.8412 14.121 24.6916C14.121 24.5531 14.0684 24.4424 13.9632 24.3593C13.8635 24.2707 13.7139 24.1959 13.5145 24.135L13.0742 23.9937C12.7751 23.894 12.5093 23.7833 12.2766 23.6614C12.0496 23.5396 11.8723 23.3817 11.7449 23.1878C11.6231 22.994 11.5621 22.7475 11.5621 22.4484C11.5621 21.9887 11.7366 21.6232 12.0856 21.3518C12.4345 21.0804 12.9191 20.9447 13.5395 20.9447C13.8552 20.9447 14.1349 20.9751 14.3786 21.0361C14.6278 21.097 14.8217 21.1884 14.9601 21.3102C15.1042 21.4265 15.1762 21.5705 15.1762 21.7422C15.1762 21.8696 15.1457 21.9804 15.0848 22.0746C15.0294 22.1632 14.9574 22.2407 14.8688 22.3072C14.7414 22.2186 14.5724 22.1438 14.362 22.0829C14.1515 22.0164 13.9189 21.9832 13.6641 21.9832C13.3982 21.9832 13.1988 22.0275 13.0659 22.1161C12.933 22.1992 12.8665 22.31 12.8665 22.4484C12.8665 22.5592 12.9108 22.6506 12.9994 22.7226C13.0881 22.7891 13.221 22.85 13.3982 22.9054L13.8552 23.0466C14.3592 23.2017 14.7469 23.4094 15.0183 23.6697C15.2897 23.9245 15.4254 24.2679 15.4254 24.6999C15.4254 25.1652 15.2454 25.5446 14.8854 25.8381C14.5254 26.1261 14.0047 26.2701 13.3235 26.2701C12.9856 26.2701 12.6837 26.2341 12.4179 26.1621C12.152 26.0901 11.9388 25.9849 11.7782 25.8464C11.6231 25.708 11.5455 25.5473 11.5455 25.3646C11.5455 25.2206 11.5871 25.0987 11.6702 24.999C11.7588 24.8938 11.8557 24.8162 11.9609 24.7664C12.1105 24.8882 12.296 24.999 12.5176 25.0987C12.7447 25.1929 12.9994 25.2399 13.2819 25.2399ZM18.3569 22.141H18.3071C18.2517 22.3183 18.1852 22.5149 18.1077 22.7309C18.0357 22.9469 17.9609 23.174 17.8834 23.4122C17.8058 23.6448 17.731 23.8774 17.659 24.11L17.5095 24.8578C17.4763 24.963 17.443 25.0738 17.4098 25.1901C17.3821 25.3064 17.3516 25.42 17.3184 25.5307C17.2852 25.6415 17.2547 25.7467 17.227 25.8464C17.1993 25.9461 17.1716 26.0403 17.1439 26.1289C17.083 26.1455 17.0138 26.1621 16.9362 26.1788C16.8587 26.2009 16.7673 26.212 16.6621 26.212C16.4294 26.212 16.2522 26.1704 16.1304 26.0874C16.0085 26.0043 15.9476 25.8824 15.9476 25.7218C15.9476 25.6553 15.9559 25.5861 15.9725 25.5141C15.9947 25.4421 16.0196 25.359 16.0473 25.2649C16.0971 25.0821 16.1664 24.8522 16.255 24.5753C16.3491 24.2984 16.4488 23.9993 16.5541 23.678C16.6648 23.3512 16.7756 23.03 16.8864 22.7143C17.0027 22.3986 17.1079 22.1078 17.2021 21.8419C17.3018 21.5761 17.3821 21.3684 17.443 21.2188C17.5206 21.169 17.6424 21.1247 17.8086 21.0859C17.9803 21.0416 18.1492 21.0194 18.3154 21.0194C18.5535 21.0194 18.7668 21.0554 18.9551 21.1274C19.1434 21.1939 19.2625 21.3019 19.3123 21.4515C19.4176 21.745 19.5311 22.0856 19.653 22.4734C19.7804 22.8555 19.9078 23.2571 20.0351 23.678C20.1625 24.099 20.2844 24.5088 20.4007 24.9076C20.5226 25.3009 20.6278 25.6553 20.7164 25.9711C20.6555 26.0375 20.5669 26.0929 20.4505 26.1372C20.3342 26.1871 20.1958 26.212 20.0351 26.212C19.8081 26.212 19.6474 26.1704 19.5533 26.0874C19.4591 26.0043 19.3871 25.8797 19.3373 25.7135L19.0714 24.783L18.9302 24.0768C18.8637 23.8276 18.7945 23.5866 18.7225 23.354C18.6505 23.1214 18.584 22.9026 18.5231 22.6977C18.4622 22.4872 18.4068 22.3017 18.3569 22.141ZM16.9529 25.0073L17.443 24.027H19.3871L19.5533 25.0073H16.9529ZM22.262 22.1078L22.2537 21.0942H24.8209C24.8541 21.1441 24.8846 21.2133 24.9122 21.3019C24.9399 21.3905 24.9538 21.4847 24.9538 21.5844C24.9538 21.7616 24.9122 21.8946 24.8292 21.9832C24.7516 22.0663 24.6436 22.1078 24.5051 22.1078H22.262ZM23.4334 21.0942L23.4417 22.1078H20.8745C20.8357 22.058 20.8025 21.9887 20.7748 21.9001C20.7527 21.8115 20.7416 21.7173 20.7416 21.6176C20.7416 21.4348 20.7804 21.3019 20.8579 21.2188C20.941 21.1358 21.049 21.0942 21.1819 21.0942H23.4334ZM22.1955 21.8835H23.4666V26.1206C23.4113 26.1372 23.3282 26.1511 23.2174 26.1621C23.1066 26.1788 22.9931 26.1871 22.8768 26.1871C22.6275 26.1871 22.4503 26.1428 22.345 26.0541C22.2454 25.9655 22.1955 25.8104 22.1955 25.5889V21.8835ZM27.1557 25.2399C27.4548 25.2399 27.6681 25.1873 27.7955 25.0821C27.9284 24.9713 27.9949 24.8412 27.9949 24.6916C27.9949 24.5531 27.9422 24.4424 27.837 24.3593C27.7373 24.2707 27.5878 24.1959 27.3884 24.135L26.948 23.9937C26.649 23.894 26.3831 23.7833 26.1505 23.6614C25.9234 23.5396 25.7461 23.3817 25.6188 23.1878C25.4969 22.994 25.436 22.7475 25.436 22.4484C25.436 21.9887 25.6104 21.6232 25.9594 21.3518C26.3083 21.0804 26.793 20.9447 27.4133 20.9447C27.729 20.9447 28.0087 20.9751 28.2524 21.0361C28.5017 21.097 28.6955 21.1884 28.834 21.3102C28.978 21.4265 29.05 21.5705 29.05 21.7422C29.05 21.8696 29.0195 21.9804 28.9586 22.0746C28.9032 22.1632 28.8312 22.2407 28.7426 22.3072C28.6152 22.2186 28.4463 22.1438 28.2358 22.0829C28.0253 22.0164 27.7927 21.9832 27.5379 21.9832C27.2721 21.9832 27.0727 22.0275 26.9397 22.1161C26.8068 22.1992 26.7403 22.31 26.7403 22.4484C26.7403 22.5592 26.7847 22.6506 26.8733 22.7226C26.9619 22.7891 27.0948 22.85 27.2721 22.9054L27.729 23.0466C28.233 23.2017 28.6207 23.4094 28.8921 23.6697C29.1635 23.9245 29.2992 24.2679 29.2992 24.6999C29.2992 25.1652 29.1192 25.5446 28.7592 25.8381C28.3992 26.1261 27.8785 26.2701 27.1973 26.2701C26.8594 26.2701 26.5576 26.2341 26.2917 26.1621C26.0258 26.0901 25.8126 25.9849 25.652 25.8464C25.4969 25.708 25.4194 25.5473 25.4194 25.3646C25.4194 25.2206 25.4609 25.0987 25.544 24.999C25.6326 24.8938 25.7295 24.8162 25.8348 24.7664C25.9843 24.8882 26.1699 24.999 26.3914 25.0987C26.6185 25.1929 26.8733 25.2399 27.1557 25.2399Z" fill="#FCCB21"/>
</g>
<defs>
<filter id="filter0_i_2648_15773" x="-0.511538" y="-1.69477" width="41.0115" height="27.9643" filterUnits="userSpaceOnUse" color-interpolation-filters="sRGB">
<feFlood flood-opacity="0" result="BackgroundImageFix"/>
<feBlend mode="normal" in="SourceGraphic" in2="BackgroundImageFix" result="shape"/>
<feColorMatrix in="SourceAlpha" type="matrix" values="0 0 0 0 0 0 0 0 0 0 0 0 0 0 0 0 0 0 127 0" result="hardAlpha"/>
<feOffset dx="-0.781069" dy="-3.90535"/>
<feGaussianBlur stdDeviation="1.1716"/>
<feComposite in2="hardAlpha" operator="arithmetic" k2="-1" k3="1"/>
<feColorMatrix type="matrix" values="0 0 0 0 0 0 0 0 0 0 0 0 0 0 0 0 0 0 0.25 0"/>
<feBlend mode="normal" in2="shape" result="effect1_innerShadow_2648_15773"/>
</filter>
</defs>
</svg>
